HIERARCHY
ROOT Hips
{
  OFFSET -31.5692 30.0904 122.763
  CHANNELS 6 Xposition Yposition Zposition Zrotation Xrotation Yrotation
  JOINT LeftUpLeg
  {
    OFFSET 8.64259 1.95398 -2.38835
    CHANNELS 3 Zrotation Xrotation Yrotation
    JOINT LeftLeg
    {
      OFFSET 43.7702 0 0
      CHANNELS 3 Zrotation Xrotation Yrotation
      JOINT LeftFoot
      {
        OFFSET 40.6238 0 0
        CHANNELS 3 Zrotation Xrotation Yrotation
        JOINT LeftToeBase
        {
          OFFSET 12.7242 0 0
          CHANNELS 3 Zrotation Xrotation Yrotation
          End Site
          {
            OFFSET 0 0 0
          }
        }
      }
    }
  }
  JOINT RightUpLeg
  {
    OFFSET -8.2249 1.95398 -2.59336
    CHANNELS 3 Zrotation Xrotation Yrotation
    JOINT RightLeg
    {
      OFFSET 43.5653 0 0
      CHANNELS 3 Zrotation Xrotation Yrotation
      JOINT RightFoot
      {
        OFFSET 40.6238 0 0
        CHANNELS 3 Zrotation Xrotation Yrotation
        JOINT RightToeBase
        {
          OFFSET 12.7242 0 0
          CHANNELS 3 Zrotation Xrotation Yrotation
          End Site
          {
            OFFSET 0 0 0
          }
        }
      }
    }
  }
  JOINT Spine
  {
    OFFSET 0.165834 0.87714 6.61349
    CHANNELS 3 Zrotation Xrotation Yrotation
    JOINT Spine1
    {
      OFFSET 7.38963 1.71661e-005 0
      CHANNELS 3 Zrotation Xrotation Yrotation
      JOINT Spine2
      {
        OFFSET 11.9445 1.14441e-005 0
        CHANNELS 3 Zrotation Xrotation Yrotation
        JOINT Spine3
        {
          OFFSET 14.7254 4.19617e-005 0
          CHANNELS 3 Zrotation Xrotation Yrotation
          JOINT Spine4
          {
            OFFSET 10.9679 0 0
            CHANNELS 3 Zrotation Xrotation Yrotation
            JOINT RightShoulder
            {
              OFFSET 2.46616 -1.6653 3.69651
              CHANNELS 3 Zrotation Xrotation Yrotation
              JOINT RightArm
              {
                OFFSET 13.0012 0 0
                CHANNELS 3 Zrotation Xrotation Yrotation
                JOINT RightForeArm
                {
                  OFFSET 28.7848 1.62311e-005 0
                  CHANNELS 3 Zrotation Xrotation Yrotation
                  JOINT RightHand
                  {
                    OFFSET 26.5688 1.62095e-005 0
                    CHANNELS 3 Zrotation Xrotation Yrotation
                    End Site
                    {
                      OFFSET 0 0 0
                    }
                  }
                }
              }
            }
            JOINT LeftShoulder
            {
              OFFSET 2.38034 -1.29275 -3.7523
              CHANNELS 3 Zrotation Xrotation Yrotation
              JOINT LeftArm
              {
                OFFSET 16.3182 6.07031e-005 0
                CHANNELS 3 Zrotation Xrotation Yrotation
                JOINT LeftForeArm
                {
                  OFFSET 27.0901 0 0
                  CHANNELS 3 Zrotation Xrotation Yrotation
                  JOINT LeftHand
                  {
                    OFFSET 24.5451 1.51738e-005 0
                    CHANNELS 3 Zrotation Xrotation Yrotation
                    End Site
                    {
                      OFFSET 0 0 0
                    }
                  }
                }
              }
            }
            JOINT Neck
            {
              OFFSET 5.0226 -0.0266342 0
              CHANNELS 3 Zrotation Xrotation Yrotation
              JOINT Head
              {
                OFFSET 6.69364 2.86102e-005 0
                CHANNELS 3 Zrotation Xrotation Yrotation
                End Site
                {
                  OFFSET 0 0 0
                }
              }
            }
          }
        }
      }
    }
  }
}
MOTION
Frames:	18
Frame Time:	0.0416667
-305.148 90.3307 -255.422 -110.525 53.5115 -77.0896 -170.002 19.006 85.7093 -54.6531 11.7763 -2.25931 78.2971 12.5031 4.34165 21.6296 -4.01087 1.35578 173.771 19.0544 80.91 -90.4026 -6.67063 -5.7621 70.295 -5.59139 -4.96716 19.0897 2.18033 8.0443 -0.319031 7.94894 -89.8607 10.9768 -0.570552 0.331598 -0.694034 -0.555405 0.356388 -23.2301 -0.643823 0.144785 -3.21747 -0.643847 0.144781 93.8333 -27.3036 -99.8446 34.0204 4.80574 5.78443 -56.0438 -19.4272 -85.2462 -28.5219 1.67417 -24.3128 -86.7743 -47.101 83.0865 -17.4152 27.4865 3.86705 42.0056 21.4948 -55.5566 13.5905 -6.21227 -46.018 22.5448 3.42747 -3.08188 -14.2369 4.12025 2.37932 
-299.918 91.2115 -248.578 -113.29 52.9665 -72.9258 -171.196 22.7056 87.0794 -51.0052 9.43198 -1.88691 69.8418 5.76345 3.54026 17.9229 -4.33131 -2.12699 171.666 2.43317 78.8269 -83.5809 -14.4389 -7.81014 72.4012 -7.88505 -5.12489 20.5062 1.62884 7.98988 1.04315 7.80528 -90.0429 11.2664 2.05604 -0.288836 -0.403089 2.04134 -0.379073 -22.9498 2.04774 0.342631 -2.93717 2.04773 0.342625 93.9855 -21.4146 -101.476 30.4943 7.58763 5.09215 -44.6404 -13.105 -84.1742 -37.0131 3.29682 -23.0438 -84.1302 -43.7852 86.7854 -28.4722 27.8865 26.5867 42.5513 9.03085 -59.1903 7.20568 -4.58831 -55.7784 15.8717 -2.46653 -3.48372 -10.9545 -1.4624 0.750608 
-293.083 94.746 -240.957 -117.281 53.4083 -69.0582 -173.376 15.4944 89.2256 -26.0114 11.4386 -1.532 51.8091 -4.73628 1.03237 16.2382 -4.23587 -3.99202 171.323 -12.1148 81.4666 -67.1531 -24.7251 -10.6706 74.9055 -9.25084 -2.30241 24.3913 0.290934 7.25918 2.30063 7.62328 -90.288 11.6558 4.44108 -1.03782 -0.00804151 4.39108 -1.23263 -22.6055 4.54724 0.347737 -2.59282 4.54725 0.347734 95.0153 -12.0951 -102.562 31.8876 5.4174 9.21748 -37.9105 -13.4694 -80.2026 -41.5726 3.35682 -20.0395 -82.5341 -43.4216 89.3481 -24.0976 29.5705 35.3352 40.5047 -0.081196 -60.9841 6.79344 -5.05304 -59.4826 5.56836 -5.97554 -1.4863 -9.42214 -5.52 -1.90123 
-283.635 96.3461 -231.224 -109.491 53.4659 -73.6674 -175.803 20.468 91.8138 -17.536 21.8348 -0.0706278 51.9101 -4.73323 -0.521436 11.1115 -11.2892 4.33707 171.989 -7.36118 85.7815 -53.0169 -19.0333 -5.86222 73.7063 -8.46784 -3.4722 22.7417 0.379378 9.45764 2.10185 7.05179 -90.3556 12.799 4.00413 -1.18769 1.13355 3.94797 -1.36301 -21.4515 4.17568 0.0727026 -1.4389 4.17568 0.0727056 94.5599 -12.3401 -103.673 30.9545 -0.323457 11.3508 -33.2239 -14.9833 -75.8679 -45.2182 3.61864 -19.0649 -83.5893 -44.3238 87.7243 -20.4525 25.8088 33.2535 39.6068 0.666351 -60.7808 8.6394 -5.97107 -58.3309 5.19906 -5.74106 -2.98664 -11.6815 -5.07472 -0.384774 
-273.17 94.1102 -221.12 -107.773 49.8149 -76.5287 -174.748 30.0191 92.0407 -43.8861 22.6917 -0.168772 62.8156 1.86479 3.91964 17.7949 -5.99912 1.37423 173.324 1.20086 89.2848 -54.8151 -13.7986 -4.06061 75.9554 -10.2793 -7.17797 33.0357 -3.44797 9.80318 1.06389 7.61231 -90.1271 11.6551 2.05666 -0.467701 -0.0143268 2.03407 -0.557804 -22.5626 2.10206 0.172322 -2.5499 2.10208 0.172307 93.9834 -17.1739 -103.036 32.9436 -2.10031 16.0318 -28.4931 -16.5539 -71.3508 -41.3448 4.06531 -21.3042 -88.1493 -48.8282 81.2818 -10.0754 22.5758 17.7774 41.0267 8.45637 -61.3953 16.359 -10.0325 -55.9642 19.5432 -2.72712 -1.70955 -16.9462 -1.7779 -2.84305 
-263.099 91.3176 -210.493 -108.995 47.8345 -78.2256 -167.795 32.8324 90.4482 -73.0752 10.7704 -0.0704331 72.5744 7.45699 4.25055 20.119 -4.3978 0.47495 173.239 10.7468 87.7104 -60.6959 -14.3489 -4.43783 82.7855 -15.3833 -5.69344 27.5822 -0.289233 3.94702 -0.152419 8.0583 -89.6823 10.76 -0.156827 0.644936 -0.911061 -0.128282 0.651198 -23.4462 -0.343394 0.567992 -3.43352 -0.343418 0.567981 94.1298 -19.9763 -101.58 37.5049 -5.84413 23.6343 -29.0841 -25.612 -65.7598 -37.2646 2.70535 -20.144 -88.3345 -48.3419 80.9218 4.07862 18.7573 -4.77009 35.5481 8.40067 -61.8946 12.8672 -8.46299 -57.9953 23.8857 1.25093 -6.04056 -16.7398 3.07227 1.9958 
-254.925 91.0747 -202.281 -110.342 47.7872 -74.6344 -163.966 23.6012 97.6318 -86.8102 6.82553 2.06235 69.3262 4.5927 4.25165 17.2576 -4.54856 -2.38654 174.604 18.1483 92.0013 -60.8718 -17.2552 -3.19254 76.5733 -11.7424 -7.81709 22.7923 1.42187 5.28149 -1.15234 8.14157 -89.7711 10.5962 -2.18993 0.65388 -1.07315 -2.159 0.749653 -23.622 -2.28511 -0.0348132 -3.60938 -2.28509 -0.0348127 95.7955 -19.0359 -97.8783 44.6978 -5.7384 37.0906 -39.9541 -31.5754 -73.2059 -32.1754 2.2242 -23.6421 -85.8024 -42.7589 83.8484 7.75724 8.73792 -19.3449 32.6462 6.03252 -62.8254 8.88548 -6.52503 -60.5882 21.8056 5.7123 -6.57315 -14.1177 7.44851 2.27465 
-248.509 94.7223 -194.419 -117.466 45.365 -69.25 -165.912 -2.55475 101.774 -75.0067 18.2769 3.82693 63.1139 1.33477 5.27163 20.6289 -2.61881 -3.21282 176.172 13.1785 91.7063 -46.4594 -16.7691 -3.4505 65.2286 -2.78427 -4.82833 18.0604 2.81559 7.3051 -2.62009 8.35514 -89.5767 10.1942 -5.02754 1.25998 -1.46801 -4.96722 1.4805 -24.08 -5.17322 -0.313218 -4.06738 -5.1732 -0.313213 98.1421 -15.2481 -92.8727 48.709 -11.2391 46.6493 -40.8232 -26.8547 -77.7913 -29.4617 3.30015 -30.1782 -86.2336 -32.6083 81.1362 6.028 7.38412 -17.6745 29.247 4.64628 -63.0757 10.1442 -6.98711 -58.5322 10.0221 11.4831 -6.77946 -11.2555 12.2809 7.6807 
-241.322 98.0385 -184.263 -115.405 48.9903 -69.0079 -170.24 -14.0394 93.7289 -54.7937 19.6271 3.90819 66.784 4.19198 5.27515 22.3686 -2.78536 -0.733852 178.265 11.1758 91.7451 -23.2982 -23.7101 -3.90799 54.8619 3.46972 2.13419 18.3104 3.34716 5.22916 -2.71675 7.70438 -90.1973 11.4808 -5.49734 0.166934 -0.178517 -5.48462 0.409454 -22.8025 -5.2926 -1.49771 -2.78986 -5.2926 -1.49771 96.266 -13.799 -98.3902 47.9706 -0.944544 57.1507 -33.6186 -21.0048 -74.6094 -25.8529 4.78497 -38.748 -84.8868 -28.6057 82.86 7.38588 14.8728 -25.144 34.8739 8.5737 -62.0936 14.2711 -8.41695 -53.9112 1.74292 14.0334 -1.60899 -13.189 13.3554 9.7272 
-232.137 97.5374 -172.086 -107.333 53.5228 -73.7829 -173.141 -6.83248 89.3382 -45.8995 15.0366 2.32963 68.1745 4.7847 2.51042 32.6834 1.91255 -0.254251 -179.852 22.7589 91.688 -37.9413 -22.0002 -4.61179 64.8784 -2.64054 -0.0950972 19.8656 2.70569 5.15234 -1.93214 7.18638 -90.9065 12.4795 -4.27003 -1.3225 0.815039 -4.32408 -1.13297 -21.759 -3.67511 -2.54597 -1.74633 -3.67511 -2.54598 94.9582 -18.0744 -100.324 46.6387 4.82991 50.6551 -34.0258 -18.7044 -74.4736 -31.5457 6.1067 -36.604 -86.264 -36.7653 82.0045 5.76616 19.9389 -20.6669 35.9177 7.02099 -62.2624 18.2411 -11.6178 -57.8368 6.68166 13.7255 0.905515 -13.2577 12.7954 7.59115 
-222.513 95.0038 -159.547 -113.048 54.0911 -67.6278 -171.479 0.356606 90.6514 -46.7724 11.8618 1.19353 79.4326 13.3598 2.97912 34.9206 2.56467 1.12659 176.697 25.9463 91.1197 -70.3234 -9.8079 -3.75597 71.6114 -5.59432 -1.12892 22.0428 1.68281 5.50735 -1.27213 7.8679 -90.7791 11.1217 -2.89305 -1.2633 -0.546603 -2.94584 -1.13468 -23.0952 -2.37965 -2.07459 -3.08255 -2.37967 -2.0746 92.5147 -28.1786 -102.323 40.4408 6.10216 29.4102 -38.2086 -14.0252 -80.0469 -34.8878 5.35814 -30.9462 -86.9476 -45.1748 82.479 -3.62107 25.1453 -2.07601 32.4668 0.729321 -65.5771 11.0247 -7.43653 -57.8376 19.0238 11.0531 -6.92727 -17.8564 11.905 7.30096 
-214.053 93.14 -148.128 -110.849 52.428 -69.8734 -171.616 8.96873 86.8258 -51.6639 12.219 0.609501 83.8034 16.2295 2.24519 21.6932 -3.81589 0.885652 169.943 22.2034 86.589 -91.1287 -6.41925 -3.84787 69.7044 -4.76813 -3.57111 17.9572 3.20999 6.16755 -0.498068 7.75414 -90.6728 11.3588 -1.30501 -1.21367 -0.311898 -1.35716 -1.15507 -22.8462 -0.879962 -1.54973 -2.83355 -0.879948 -1.54973 96.2777 -27.7167 -94.5015 36.0662 4.54619 3.70591 -49.9477 -9.72148 -89.6142 -34.038 3.20099 -25.1874 -84.4695 -46.58 86.602 -24.3905 19.2505 23.9021 35.8717 1.98155 -65.6258 6.99385 -5.22354 -59.5957 22.3994 5.71678 -7.57617 -18.3233 7.40195 5.13927 
-207.244 94.8964 -138.773 -115.652 48.3107 -65.3538 -171.849 12.5591 91.1957 -47.127 21.9817 0.300662 71.3934 8.73679 6.70846 18.9877 -3.35182 -3.19053 165.142 -0.157908 79.3557 -86.0294 -15.6413 -4.77729 63.6741 -1.29819 -4.48942 16.9539 3.38207 6.94075 0.796317 7.76982 -90.8 11.3411 1.21167 -1.7143 -0.330487 1.13505 -1.76595 -22.8646 1.67083 -1.27095 -2.85196 1.6708 -1.27095 96.0893 -21.1523 -96.5646 25.844 13.5469 -0.9857 -44.137 -5.34516 -92.439 -38.9908 4.1396 -24.1651 -81.7601 -41.08 90.4132 -35.3688 18.2934 47.1097 35.8289 -7.22481 -66.9905 2.73978 -3.50802 -67.7996 17.1286 -1.0973 -8.9191 -14.1 1.08259 4.68505 
-199.226 99.141 -128.931 -115.185 45.8157 -66.2499 -174.782 9.51581 90.4716 -23.4576 23.3291 0.584116 52.8846 -4.78252 1.77445 16.9285 -4.04072 -3.6348 166.833 -20.6375 84.4243 -60.0099 -22.5262 -4.90866 62.1944 -0.319805 -1.03805 18.5131 2.31153 8.36852 2.35293 7.32265 -90.5649 12.2783 4.40775 -1.642 0.613814 4.33119 -1.8347 -21.9835 4.69709 -0.238536 -1.97085 4.69709 -0.238533 97.5195 -9.40653 -96.3618 22.0618 13.7921 8.66766 -37.9299 -4.01592 -92.5796 -38.1919 4.51675 -24.4731 -82.04 -32.2256 88.9707 -33.9764 24.9884 55.0798 34.199 -13.8522 -68.6939 4.6589 -5.19399 -69.841 11.3984 -9.49207 -10.5705 -12.9398 -6.82042 0.599997 
-188.643 99.8832 -117.74 -102.696 41.4349 -76.2812 -176.815 17.9391 89.6066 -14.4034 24.982 0.0647288 53.4959 -3.75696 -2.8017 23.4518 -4.492 4.73673 173.555 -22.0357 95.6533 -36.2151 -12.1775 -0.232313 65.2255 -1.85041 -1.61103 19.3198 2.16911 7.68856 2.19103 6.51155 -89.6826 13.8601 4.49886 0.0392666 2.19697 4.49621 -0.159188 -20.3963 4.27863 1.39203 -0.383664 4.2786 1.39203 96.9839 -6.4529 -99.0656 19.547 8.36592 14.2625 -40.0608 -2.86165 -93.4811 -39.455 4.37696 -24.0466 -82.687 -28.0491 87.1829 -24.7301 23.2436 53.5496 33.8638 -13.8101 -69.2023 7.32235 -7.35462 -72.857 13.5015 -14.9333 -15.8698 -14.9626 -10.5185 -0.317815 
-176.972 97.6423 -104.976 -101.227 37.4656 -79.6027 -177.813 28.6434 89.264 -43.1482 20.6743 1.42822 68.0674 5.09832 0.672501 21.9656 -4.74641 3.52405 174.619 -14.0465 97.8502 -34.7247 -4.92667 1.69351 68.6111 -4.21824 -3.96863 30.1262 -2.40904 10.2129 1.62598 7.10873 -89.2506 12.6428 3.58707 1.08005 0.976524 3.63112 0.920938 -21.5865 3.09657 2.10896 -1.57388 3.09654 2.10895 96.1566 -12.1097 -99.4351 24.4892 3.1087 16.301 -43.1354 1.75365 -98.5913 -42.5416 3.55061 -20.6684 -84.3152 -38.0808 85.6444 -12.2227 23.0571 36.0236 33.6045 -6.18989 -68.2133 12.6866 -10.2666 -66.9746 26.5513 -16.4581 -11.4932 -17.9431 -11.2938 -2.83263 
-165.715 94.6464 -91.4064 -107.179 39.1695 -79.2218 -174.267 28.4315 90.0857 -71.3871 12.9974 2.58642 75.5953 9.03184 2.77092 18.7664 -6.5483 3.67371 170.596 -3.57122 91.3315 -48.2963 -10.53 -0.407984 79.711 -12.9146 -3.48959 35.2718 -4.07847 8.45348 0.949292 7.89321 -89.0958 11.0701 2.3091 1.57664 -0.599672 2.37625 1.47346 -23.1374 1.72859 2.19767 -3.12478 1.7286 2.19767 94.886 -18.0936 -100.431 37.8524 -8.61777 18.8542 -45.7307 -0.340535 -94.2466 -41.9964 2.68707 -19.099 -87.5298 -49.2456 82.2981 -6.28472 19.5087 13.4748 33.1526 3.36899 -64.4722 14.2716 -10.2163 -62.0254 28.0296 -10.6512 -7.30645 -16.1127 -6.97162 -3.93048 
-155.704 92.5313 -79.1775 -106.353 42.8136 -77.4467 -170.641 23.5126 99.8627 -87.3265 11.5668 4.30385 71.712 6.66717 5.77084 21.069 -3.105 -1.45477 170.035 12.6836 92.7261 -56.892 -14.6042 0.395681 79.5725 -13.4432 -3.68355 26.7699 -1.14483 9.62733 -0.094797 7.85922 -89.3092 11.1503 0.132199 1.36115 -0.521473 0.191963 1.35402 -23.0496 -0.282943 1.33796 -3.03691 -0.282934 1.33797 95.4792 -22.9981 -97.4397 47.2245 -13.4407 26.7446 -43.8806 -8.99268 -89.4764 -39.6022 2.86322 -20.9644 -89.0961 -55.7562 81.1715 0.0733787 15.9955 -16.8244 30.533 6.05347 -64.1842 13.705 -9.64416 -61.0196 29.9542 -3.90868 -9.19475 -16.9583 0.125614 -1.29443 
